<svg xmlns="http://www.w3.org/2000/svg" fill="none" viewBox="0 0 24 24" id="Coursera--Streamline-Svg-Logos" height="24" width="24"><desc>Coursera Streamline Icon: https://streamlinehq.com</desc><path fill="#0056d2" d="M7.96195 10.4205v1.83675c0 0.40585 0.226225 0.645475 0.618825 0.645475 0.4392 0 0.691675 -0.266275 0.691675 -0.778725v-1.7035h0.818575v3.160875h-0.817975v-0.366175c-0.19285 0.29945 -0.505725 0.4459 -0.9382 0.4459 -0.73195 0.000225 -1.191075 -0.53215 -1.191075 -1.304175V10.4205h0.818175Zm8.79095 -0.0598c0.9317 0.001825 1.588975 0.7482 1.586725 1.627425 0.000175 0.086925 -0.006625 0.173725 -0.02035 0.259575l-2.408775 -0.004475c0.09235 0.379375 0.404625 0.6528 0.877175 0.6538 0.286025 0 0.592375 -0.105375 0.779125 -0.3446l0.558225 0.44755c-0.28705 0.405425 -0.793375 0.64405 -1.33205 0.643025 -0.951025 -0.00325 -1.68175 -0.716675 -1.680125 -1.64165 0.001825 -0.885125 0.6353 -1.642475 1.64005 -1.64065Zm5.193925 0c0.499 0 0.785225 0.152975 0.978075 0.4459l0.0767 -0.3865H23.75v3.161275h-0.7484l-0.09665 -0.3255c-0.2195 0.23965 -0.4925 0.386525 -0.958125 0.386525 -0.718725 -0.001025 -1.537325 -0.633275 -1.537325 -1.618075 0 -0.9915 0.805175 -1.663625 1.537325 -1.663625Zm-16.7702 0c0.9382 0 1.683575 0.73235 1.683575 1.636975 0 0.89835 -0.745375 1.6437 -1.683575 1.6437 -0.9317 0 -1.676875 -0.746175 -1.676875 -1.6437 0 -0.90505 0.745175 -1.636975 1.676875 -1.636975Zm8.416825 -0.02015c0.5277 0 0.995175 0.23375 1.24905 0.66785l-0.72095 0.38145c-0.1068 -0.213825 -0.307175 -0.33405 -0.56105 -0.33405 -0.246975 0 -0.3674 0.086875 -0.3674 0.23375 0 0.494325 1.72325 0.18045 1.72325 1.362975 0 0.61455 -0.50085 0.98845 -1.309075 0.98845 -0.687975 -0.000625 -1.1689 -0.22765 -1.409125 -0.748625l0.72745 -0.3808c0.120225 0.260575 0.360675 0.414175 0.701425 0.414175 0.313875 0 0.4341 -0.1001 0.4341 -0.24045 0 -0.508575 -1.723225 -0.200375 -1.723225 -1.362975 0 -0.6412 0.56105 -0.98175 1.25555 -0.98175Zm-11.6665925 0.013425c0.280135 -0.00195 0.556355 0.065825 0.8037925 0.1972 0.2474 0.1314 0.458225 0.3223 0.6135 0.5555l-0.698575 0.405225c-0.080825 -0.1155 -0.1884225 -0.209725 -0.31357 -0.274625 -0.125165 -0.0649 -0.2641675 -0.09855 -0.4051475 -0.09805 -0.4790725 0 -0.87169 0.399325 -0.87169 0.85845 0 0.45915 0.3926175 0.858475 0.87169 0.858475 0.1476275 0.00095 0.2930375 -0.035925 0.4223575 -0.107175 0.1292975 -0.071225 0.238185 -0.1744 0.316285 -0.299675l0.69165 0.41255c-0.15335 0.24 -0.364975 0.437275 -0.615125 0.573425 -0.2501875 0.136175 -0.530755 0.2068 -0.815575 0.2053C0.9951575 13.641375 0.25 12.8952 0.25 11.997675c0 -0.91155 0.7451575 -1.6437 1.6768575 -1.6437Zm10.2663925 -0.01505 -0.150925 0.763875c-0.02785 -0.003025 -0.0558 -0.0046 -0.083825 -0.004675 -0.439 0.001025 -0.69145 0.2677 -0.690225 0.77995l0.004475 1.7031 -0.8184 0.001825 -0.0069 -3.160675 0.818375 -0.001825v0.366175c0.190625 -0.297425 0.500225 -0.4443 0.927425 -0.44775Zm8.223775 0.00225 -0.15175 0.76305c-0.02705 -0.00265 -0.054725 -0.004675 -0.0838 -0.004675 -0.4386 0 -0.691675 0.266075 -0.691675 0.778525v1.7033h-0.818375V10.4203h0.818375v0.366175c0.19145 -0.2968 0.50065 -0.443075 0.927225 -0.4453Zm-15.2404 0.80475c-0.479075 0 -0.8717 0.399325 -0.8717 0.85175 0 0.45915 0.392625 0.858475 0.8717 0.858475 0.4866 0 0.8784 -0.399325 0.8784 -0.858475 0 -0.452425 -0.392625 -0.85175 -0.8784 -0.85175Zm16.91015 0.0003c-0.232125 0.0009 -0.45425 0.0939 -0.6176 0.258575 -0.163575 0.1647 -0.2547 0.387525 -0.2539 0.619525 0 0.4392 0.392625 0.831825 0.8719 0.831825 0.485175 0 0.8776 -0.392625 0.8776 -0.838525 -0.000825 -0.232 -0.094 -0.45415 -0.258575 -0.61755 -0.164775 -0.163425 -0.387525 -0.254725 -0.619425 -0.25385Zm-5.341825 -0.040175c-0.379375 0 -0.68575 0.225 -0.806175 0.5641l1.576975 0.00285c-0.045975 -0.319375 -0.378175 -0.566325 -0.7708 -0.56695Z" stroke-width="0.25"></path></svg>