<?xml version="1.0" standalone="no"?>
<!DOCTYPE svg PUBLIC "-//W3C//DTD SVG 20010904//EN"
 "http://www.w3.org/TR/2001/REC-SVG-20010904/DTD/svg10.dtd">
<svg version="1.0" xmlns="http://www.w3.org/2000/svg"
 width="793.000000pt" height="181.000000pt" viewBox="0 0 793.000000 181.000000"
 preserveAspectRatio="xMidYMid meet">

<g transform="translate(0.000000,181.000000) scale(0.100000,-0.100000)"
fill="#FF0000" stroke="none">
<path d="M1095 1597 c-131 -34 -214 -98 -261 -200 l-29 -62 -3 -410 c-2 -252
1 -436 8 -480 28 -189 151 -287 380 -302 99 -6 181 7 256 41 59 27 133 91 165
142 29 47 48 168 49 302 l0 112 -182 -2 -183 -3 -5 -161 c-5 -174 -11 -194
-59 -194 -38 0 -51 12 -61 56 -12 51 -12 827 0 878 10 44 23 56 62 56 54 0 58
-14 58 -216 l0 -184 186 0 187 0 -6 173 c-5 183 -17 245 -60 308 -33 48 -113
106 -182 130 -76 26 -247 35 -320 16z"/>
<path d="M2625 1600 c-103 -21 -201 -79 -248 -148 -61 -87 -61 -92 -65 -517
-4 -412 3 -512 39 -595 59 -134 229 -211 434 -197 179 13 325 110 366 245 6
20 13 108 16 195 l6 157 -182 0 -181 0 0 -127 c-1 -141 -11 -211 -31 -224 -29
-18 -68 -10 -86 18 -17 25 -18 63 -18 468 0 405 1 443 18 468 13 20 26 27 51
27 57 0 61 -13 64 -217 l4 -183 180 0 180 0 -5 178 c-5 213 -18 262 -83 332
-55 59 -125 97 -211 115 -73 16 -183 18 -248 5z"/>
<path d="M60 875 l0 -705 320 0 320 0 0 140 0 140 -135 0 -135 0 0 155 0 155
115 0 115 0 0 135 0 135 -115 0 -115 0 0 135 0 135 125 0 125 0 0 140 0 140
-310 0 -310 0 0 -705z"/>
<path d="M6950 1490 l0 -90 185 0 185 0 0 90 0 90 -185 0 -185 0 0 -90z"/>
<path d="M7440 875 l0 -705 185 0 185 0 0 705 0 705 -185 0 -185 0 0 -705z"/>
<path d="M3580 1339 c-124 -22 -221 -95 -262 -197 -22 -56 -23 -65 -23 -407
l0 -350 26 -55 c59 -126 168 -180 365 -180 188 0 306 65 371 205 l28 60 0 336
0 336 -35 69 c-42 82 -102 132 -196 163 -75 24 -198 34 -274 20z m151 -226 c6
-16 9 -159 7 -380 -3 -338 -4 -355 -22 -369 -26 -18 -32 -18 -56 6 -19 19 -20
33 -20 376 0 226 4 362 10 375 7 12 21 19 41 19 23 0 32 -6 40 -27z"/>
<path d="M5637 1336 c-49 -14 -73 -30 -120 -81 l-28 -30 3 50 3 50 -177 3
-178 2 0 -580 0 -580 175 0 174 0 3 468 c3 515 2 506 62 500 22 -2 32 -9 37
-28 4 -14 7 -231 8 -482 l1 -458 176 0 175 0 -3 503 c-3 458 -5 506 -21 542
-10 22 -28 50 -40 63 -54 58 -161 83 -250 58z"/>
<path d="M6360 1339 c-111 -19 -220 -91 -261 -170 -10 -21 -23 -69 -29 -106
-13 -91 -13 -502 1 -600 28 -204 131 -298 340 -310 168 -11 286 33 361 132 52
69 68 122 75 253 l6 112 -155 0 -155 0 -5 -124 c-3 -68 -11 -132 -17 -144 -12
-23 -41 -35 -63 -27 -40 16 -43 45 -43 405 0 372 1 380 50 380 40 0 50 -25 53
-141 l4 -109 166 0 165 0 -7 89 c-12 155 -47 233 -131 291 -91 63 -233 91
-355 69z"/>
<path d="M4202 828 c3 -485 4 -505 24 -548 25 -55 81 -105 131 -119 101 -28
219 1 276 68 l27 33 0 -46 0 -46 175 0 175 0 0 580 0 580 -175 0 -175 0 0
-470 c0 -457 -1 -471 -20 -490 -24 -24 -39 -25 -66 -6 -18 14 -19 33 -22 490
l-4 476 -174 0 -175 0 3 -502z"/>
<path d="M6957 1324 c-4 -4 -7 -265 -7 -581 l0 -573 185 0 185 0 -2 578 -3
577 -176 3 c-96 1 -178 -1 -182 -4z"/>
<path d="M1750 750 l0 -120 230 0 230 0 0 120 0 120 -230 0 -230 0 0 -120z"/>
</g>
</svg>
