<?xml version="1.0" encoding="utf-8"?>
<!-- Generator: Adobe Illustrator 26.0.3, SVG Export Plug-In . SVG Version: 6.00 Build 0)  -->
<svg version="1.0" id="katman_1" xmlns="http://www.w3.org/2000/svg" xmlns:xlink="http://www.w3.org/1999/xlink" x="0px" y="0px"
	 viewBox="0 0 600 450" style="enable-background:new 0 0 600 450;" xml:space="preserve">
<style type="text/css">
	.st0{fill:#212121;}
	.st1{fill:#F59A21;}
	.st2{fill:#4399D4;}
	.st3{fill:#E6195C;}
	.st4{fill:#67549F;}
</style>
<path class="st0" d="M203.4,248.6c-3.5,0-6.4-0.4-8.9-1.2c-2.5-0.8-4.5-1.8-6-3c-1.6-1.2-2.7-2.4-3.5-3.6c-0.7-1.2-1.2-2.2-1.2-3
	c0-0.6,0.1-1.1,0.5-1.5c0.4-0.4,0.9-0.5,1.4-0.5h6.9c0.2,0,0.4,0,0.6,0.1c0.2,0,0.4,0.2,0.7,0.5c0.7,0.6,1.5,1.3,2.4,2
	c0.8,0.7,1.8,1.3,3,1.8c1.2,0.5,2.6,0.7,4.3,0.7c2.3,0,4.1-0.4,5.7-1.3c1.5-0.9,2.3-2.2,2.3-3.8c0-1.2-0.3-2.2-1-2.9
	c-0.7-0.7-1.9-1.4-3.7-2c-1.8-0.6-4.3-1.2-7.6-1.9c-3.2-0.7-5.9-1.7-8-2.8c-2.1-1.2-3.7-2.6-4.8-4.3c-1.1-1.7-1.6-3.7-1.6-6
	c0-2.3,0.7-4.4,2-6.4c1.4-2,3.4-3.7,6.1-5c2.7-1.3,6-2,10-2c3.1,0,5.8,0.4,8.1,1.2c2.3,0.8,4.2,1.8,5.7,2.9c1.5,1.2,2.7,2.3,3.5,3.5
	c0.8,1.2,1.2,2.2,1.3,3.1c0,0.6-0.1,1.1-0.5,1.5c-0.4,0.4-0.9,0.5-1.4,0.5h-6.4c-0.3,0-0.5,0-0.8-0.2c-0.2-0.1-0.5-0.3-0.7-0.4
	c-0.6-0.6-1.3-1.2-2.1-1.8c-0.7-0.6-1.6-1.2-2.7-1.7c-1.1-0.5-2.5-0.7-4.2-0.7c-2.2,0-3.9,0.5-5,1.4c-1.2,0.9-1.7,2.1-1.7,3.6
	c0,1,0.3,1.8,0.8,2.5c0.5,0.7,1.6,1.4,3.3,2c1.7,0.6,4.2,1.3,7.6,2c3.9,0.7,6.9,1.7,9.2,3.1c2.3,1.4,3.9,2.9,4.8,4.6
	c0.9,1.8,1.4,3.7,1.4,5.8c0,2.6-0.8,4.9-2.3,7c-1.5,2.1-3.8,3.7-6.8,4.9C211.5,248,207.8,248.6,203.4,248.6z"/>
<path class="st0" d="M252.4,240.1c3,0,5.4-1,7.1-2.9c1.7-1.9,2.6-4.7,2.8-8.5c0-0.9,0.1-2,0.1-3.3c0-1.4,0-2.5-0.1-3.3
	c-0.2-3.7-1.1-6.5-2.8-8.4c-1.7-1.9-4-2.9-7.1-2.9c-3,0-5.4,1-7.1,2.9c-1.7,1.9-2.6,4.7-2.8,8.4c0,0.9-0.1,2-0.1,3.3
	c0,1.4,0,2.5,0.1,3.3c0.2,3.7,1.1,6.6,2.8,8.5C247,239.2,249.3,240.1,252.4,240.1z M252.4,248.6c-4.6,0-8.5-0.8-11.6-2.4
	c-3.1-1.6-5.5-3.9-7.2-6.8c-1.6-2.9-2.6-6.3-2.8-10.2c0-1.1-0.1-2.3-0.1-3.8c0-1.5,0-2.8,0.1-3.8c0.2-4,1.2-7.4,2.9-10.3
	c1.7-2.9,4.1-5.1,7.3-6.8c3.1-1.6,7-2.4,11.4-2.4c4.5,0,8.3,0.8,11.4,2.4s5.5,3.9,7.3,6.8c1.7,2.9,2.7,6.3,2.9,10.3
	c0,1.1,0.1,2.3,0.1,3.8c0,1.5,0,2.8-0.1,3.8c-0.2,3.9-1.2,7.3-2.8,10.2c-1.6,2.9-4,5.2-7.2,6.8C260.9,247.8,257,248.6,252.4,248.6z"
	/>
<path class="st0" d="M324.7,240.1c3,0,5.4-1,7.1-2.9c1.7-1.9,2.6-4.7,2.8-8.5c0-0.9,0.1-2,0.1-3.3c0-1.4,0-2.5-0.1-3.3
	c-0.2-3.7-1.1-6.5-2.8-8.4c-1.7-1.9-4-2.9-7.1-2.9s-5.4,1-7.1,2.9c-1.7,1.9-2.6,4.7-2.8,8.4c0,0.9-0.1,2-0.1,3.3
	c0,1.4,0,2.5,0.1,3.3c0.2,3.7,1.1,6.6,2.8,8.5C319.2,239.2,321.6,240.1,324.7,240.1z M324.7,248.6c-4.6,0-8.5-0.8-11.6-2.4
	c-3.1-1.6-5.5-3.9-7.2-6.8c-1.6-2.9-2.6-6.3-2.8-10.2c0-1.1-0.1-2.3-0.1-3.8c0-1.5,0-2.8,0.1-3.8c0.2-4,1.2-7.4,2.9-10.3
	c1.7-2.9,4.1-5.1,7.3-6.8c3.1-1.6,7-2.4,11.4-2.4c4.5,0,8.3,0.8,11.4,2.4c3.1,1.6,5.5,3.9,7.3,6.8c1.7,2.9,2.7,6.3,2.9,10.3
	c0,1.1,0.1,2.3,0.1,3.8c0,1.5,0,2.8-0.1,3.8c-0.2,3.9-1.2,7.3-2.8,10.2c-1.6,2.9-4,5.2-7.2,6.8C333.1,247.8,329.3,248.6,324.7,248.6
	z"/>
<path class="st0" d="M386.9,221.5H406v-0.3c0-2.3-0.4-4.2-1.1-5.8c-0.7-1.7-1.8-3-3.3-4c-1.4-1-3.2-1.5-5.2-1.5
	c-2,0-3.7,0.5-5.2,1.5c-1.4,1-2.5,2.3-3.2,4c-0.7,1.7-1.1,3.6-1.1,5.8L386.9,221.5L386.9,221.5z M396.4,248.6
	c-6.4,0-11.5-1.8-15.2-5.5c-3.7-3.7-5.8-8.9-6.1-15.7c0-0.6-0.1-1.3-0.1-2.2c0-0.9,0-1.6,0.1-2.1c0.2-4.3,1.2-8.1,3-11.2
	c1.8-3.2,4.2-5.6,7.3-7.3c3.1-1.7,6.8-2.5,11-2.5c4.7,0,8.6,1,11.8,2.9c3.2,1.9,5.5,4.6,7.2,8c1.6,3.4,2.4,7.4,2.4,11.8v1.8
	c0,0.6-0.2,1.1-0.6,1.5c-0.4,0.4-0.9,0.6-1.6,0.6h-28.7v0.7c0,2,0.4,3.9,1.2,5.6c0.7,1.7,1.8,3.1,3.2,4.1c1.4,1.1,3.1,1.6,5,1.6
	c1.6,0,3-0.2,4.1-0.7c1.1-0.5,2-1.1,2.7-1.7c0.7-0.6,1.2-1.1,1.5-1.6c0.5-0.7,0.9-1.1,1.2-1.2c0.3-0.2,0.8-0.2,1.4-0.2h7.4
	c0.6,0,1.1,0.2,1.4,0.5c0.4,0.4,0.5,0.8,0.5,1.3c-0.1,0.9-0.5,2-1.4,3.3c-0.9,1.3-2.2,2.6-3.8,3.9c-1.7,1.2-3.7,2.3-6.2,3.2
	C402.5,248.2,399.6,248.6,396.4,248.6z"/>
<path class="st0" d="M448.5,240.4l-5.3,0.3c-3.4,0.2-6.4-2.5-6.4-6c0-3,2.2-5.5,5.2-6l10.7-1.4v8.6
	C452.7,238.2,450.9,240.2,448.5,240.4z M463.2,212.3c-0.7-2-1.8-3.8-3.3-5.3c-1.5-1.5-3.5-2.7-6-3.6c-2.5-0.9-5.6-1.3-9.2-1.3
	c-3.4,0-6.2,0.4-8.6,1.3c-2.4,0.9-4.3,1.9-5.8,3.2c-1.5,1.2-2.6,2.5-3.3,3.8c-0.7,1.3-1.1,2.5-1.1,3.3c0,0.6,0.2,1.1,0.5,1.4
	c0.3,0.4,0.8,0.5,1.4,0.5h6.8c0.9,0,1.5-0.4,2-1.1c0.6-1.4,1.6-2.5,2.9-3.3c1.3-0.8,3-1.2,5-1.2c2.9,0,5,0.7,6.2,2
	c1.2,1.3,1.8,3.2,1.8,5.6v0.9v1.2v0.9l-15.1,1.2c-7.1,0.5-12.5,6.4-12.5,13.5c0,7.5,6.1,13.5,13.6,13.5h13.8
	c6.5,0,11.8-5.3,11.8-11.8v-11.6v-5.5v-1.1C464.2,216.4,463.9,214.3,463.2,212.3z"/>
<path class="st0" d="M357,186.6h7.7c1,0,1.8,0.8,1.8,1.8V246c0,1-0.8,1.8-1.8,1.8H357c-1,0-1.8-0.8-1.8-1.8v-57.5
	C355.1,187.5,355.9,186.6,357,186.6z"/>
<path class="st0" d="M284.7,186.6h7.7c1,0,1.8,0.8,1.8,1.8V246c0,1-0.8,1.8-1.8,1.8h-7.7c-1,0-1.8-0.8-1.8-1.8v-57.5
	C282.8,187.5,283.7,186.6,284.7,186.6z"/>
<path class="st0" d="M475.6,248c-0.5,0-1-0.2-1.4-0.5c-0.4-0.4-0.7-1-0.7-1.6v-31.9c0-6.5,5.3-11.8,11.8-11.8c4.1,0,7.3,0,13.1-0.1
	c1.2,0,2.3,1,2.3,2.3v3.9c0,1.2-1,2.3-2.3,2.3h-8.7c-2.5,0-4.5,2-4.5,4.5v30.9c0,0.6-0.2,1.1-0.6,1.4c-0.4,0.4-0.9,0.6-1.5,0.6
	L475.6,248L475.6,248z"/>
<path class="st0" d="M503.8,219.6v26.1c0,1.2,1,2.3,2.3,2.3h7.2c1.2,0,2.3-1,2.3-2.3v-26.3c0-5.3,4.3-9.5,9.5-9.5
	c5.3,0,9.5,4.2,9.5,9.5v26.3c0,1.2,1,2.3,2.3,2.3h7.2c1.2,0,2.3-1,2.3-2.3v-26.1c0-9.7-7.8-17.5-17.6-17.5h-7.5
	C511.7,202.1,503.8,210,503.8,219.6z"/>
<path class="st1" d="M120.2,199.7c10,0,19,4.4,25.1,11.3c2.1,2.3,5.9,0.7,5.6-2.4c-0.2-2-0.6-4.1-1.2-6.1c-3.1-11-11.9-19.5-23-22.4
	c-22.2-5.8-42.2,10.7-42.2,31.9c0,1.4,0.1,2.7,0.2,4c0.4,3.1,4.5,3.9,6,1.1C96.4,206.8,107.5,199.7,120.2,199.7z"/>
<path class="st2" d="M78.5,209.5c0-10,4.4-18.9,11.4-25c2.3-2.1,0.7-5.9-2.4-5.6c-2.1,0.2-4.1,0.6-6.2,1.1
	c-11,3.1-19.6,11.9-22.5,22.9C53,225.1,69.6,245,90.9,245c1.4,0,2.7-0.1,4.1-0.2c3.1-0.4,3.9-4.5,1.1-6
	C85.6,233.2,78.5,222.2,78.5,209.5z"/>
<path class="st3" d="M88.3,251c-10,0-19-4.4-25.1-11.3c-2.1-2.3-5.9-0.7-5.6,2.4c0.2,2,0.6,4.1,1.2,6.1c3.1,11,11.9,19.5,23,22.4
	c22.3,5.8,42.3-10.8,42.3-32c0-1.4-0.1-2.7-0.2-4c-0.4-3.1-4.5-3.9-6-1.1C112.1,244,101.1,251,88.3,251z"/>
<path class="st4" d="M130,241.3c0,10-4.4,18.9-11.4,25c-2.3,2.1-0.7,5.9,2.4,5.6c2-0.2,4.1-0.6,6.2-1.2c11-3.1,19.6-11.9,22.5-22.9
	c5.8-22.2-10.8-42.1-32.1-42.1c-1.4,0-2.7,0.1-4.1,0.2c-3.1,0.4-3.9,4.5-1.1,6C122.9,217.6,130,228.6,130,241.3z"/>
</svg>
